<svg width="43" height="46" viewBox="0 0 43 46" fill="none" xmlns="http://www.w3.org/2000/svg">
<g clip-path="url(#clip0_2_207)">
<path d="M23.4451 7.24291C23.8911 7.18099 24.2024 6.76915 24.1404 6.32311C24.0785 5.87707 23.6667 5.56585 23.2206 5.62795C22.7746 5.68987 22.4634 6.10171 22.5255 6.54775C22.5874 6.99361 22.9992 7.30483 23.4451 7.24291Z" fill="black"/>
<path d="M9.26004 3.92001C9.65766 3.92001 9.98004 3.59763 9.98004 3.20001V1.04001C9.98004 0.642387 9.65766 0.320007 9.26004 0.320007C8.86242 0.320007 8.54004 0.642387 8.54004 1.04001V3.20001C8.54004 3.59763 8.86242 3.92001 9.26004 3.92001Z" fill="black"/>
<path d="M9.26004 5.36005C8.86242 5.36005 8.54004 5.68243 8.54004 6.08005V8.24005C8.54004 8.63767 8.86242 8.96005 9.26004 8.96005C9.65766 8.96005 9.98004 8.63767 9.98004 8.24005V6.08005C9.98004 5.68243 9.65766 5.36005 9.26004 5.36005Z" fill="black"/>
<path d="M5.65994 5.36005H7.81994C8.21756 5.36005 8.53994 5.03767 8.53994 4.64004C8.53994 4.24242 8.21756 3.92004 7.81994 3.92004H5.65994C5.26232 3.92004 4.93994 4.24242 4.93994 4.64004C4.93994 5.03767 5.26232 5.36005 5.65994 5.36005Z" fill="black"/>
<path d="M10.7 5.36005H12.86C13.2576 5.36005 13.58 5.03767 13.58 4.64004C13.58 4.24242 13.2576 3.92004 12.86 3.92004H10.7C10.3024 3.92004 9.97998 4.24242 9.97998 4.64004C9.97998 5.03767 10.3024 5.36005 10.7 5.36005Z" fill="black"/>
<path d="M38.3265 9.68005H4.67372C2.43848 9.68005 0.620117 11.4984 0.620117 13.7337V36.5848C0.620117 38.8208 2.43902 40.6401 4.67498 40.6401H16.9458L15.9172 44.2401H8.54012C8.1425 44.2401 7.82012 44.5624 7.82012 44.9601C7.82012 45.3577 8.1425 45.6801 8.54012 45.6801H35.1801C35.5781 45.6801 35.9001 45.3577 35.9001 44.9601C35.9001 44.5624 35.5781 44.2401 35.1801 44.2401H27.8032L26.775 40.6401H38.3267C40.5619 40.6401 42.3803 38.8217 42.3803 36.5865V13.7337C42.3801 11.4984 40.5618 9.68005 38.3265 9.68005ZM4.67372 11.1201H38.3265C39.768 11.1201 40.9401 12.2926 40.9401 13.7337V34.1601H2.06012V13.7337C2.06012 12.2926 3.23264 11.1201 4.67372 11.1201ZM26.3052 44.2401H17.4147L18.4434 40.6401H25.2771L26.3052 44.2401ZM38.3265 39.2001H4.67498C3.23336 39.2001 2.06012 38.0268 2.06012 36.5848V35.6001H40.9401V36.5865C40.9401 38.0275 39.768 39.2001 38.3265 39.2001Z" fill="black"/>
<path d="M21.5003 38.5218C22.1083 38.5218 22.6012 38.029 22.6012 37.421C22.6012 36.813 22.1083 36.3201 21.5003 36.3201C20.8923 36.3201 20.3994 36.813 20.3994 37.421C20.3994 38.029 20.8923 38.5218 21.5003 38.5218Z" fill="black"/>
<path d="M5.65994 21.2H7.09994V22.64C7.09994 23.0376 7.42232 23.36 7.81994 23.36H10.6999C11.0976 23.36 11.4199 23.0376 11.4199 22.64V21.2H12.8599C13.2576 21.2 13.5799 20.8776 13.5799 20.48V17.6C13.5799 17.2023 13.2576 16.88 12.8599 16.88H11.4199V15.44C11.4199 15.0424 11.0976 14.72 10.6999 14.72H7.81994C7.42232 14.72 7.09994 15.0424 7.09994 15.44V16.88H5.65994C5.26232 16.88 4.93994 17.2023 4.93994 17.6V20.48C4.93994 20.8776 5.26232 21.2 5.65994 21.2ZM6.37994 18.32H7.81994C8.21756 18.32 8.53994 17.9976 8.53994 17.6V16.16H9.97994V17.6C9.97994 17.9976 10.3023 18.32 10.6999 18.32H12.1399V19.76H10.6999C10.3023 19.76 9.97994 20.0823 9.97994 20.48V21.92H8.53994V20.48C8.53994 20.0823 8.21756 19.76 7.81994 19.76H6.37994V18.32Z" fill="black"/>
<path d="M16.4602 22.6399H35.1802C35.5782 22.6399 35.9002 22.3176 35.9002 21.9199V16.1599C35.9002 15.7623 35.5782 15.4399 35.1802 15.4399H16.4602C16.0626 15.4399 15.7402 15.7623 15.7402 16.1599V21.9199C15.7402 22.3176 16.0626 22.6399 16.4602 22.6399ZM17.1802 16.8799H34.4602V21.1999H17.1802V16.8799Z" fill="black"/>
<path d="M5.66016 26.24C5.66016 26.6376 5.98254 26.96 6.38016 26.96H36.6202C37.0181 26.96 37.3402 26.6376 37.3402 26.24C37.3402 25.8424 37.0181 25.52 36.6202 25.52H6.38016C5.98254 25.52 5.66016 25.8424 5.66016 26.24Z" fill="black"/>
<path d="M28.7002 27.68H6.38016C5.98254 27.68 5.66016 28.0024 5.66016 28.4C5.66016 28.7976 5.98254 29.12 6.38016 29.12H28.7002C29.0981 29.12 29.4202 28.7976 29.4202 28.4C29.4202 28.0024 29.0981 27.68 28.7002 27.68Z" fill="black"/>
<path d="M18.6202 29.84H6.38016C5.98254 29.84 5.66016 30.1624 5.66016 30.56C5.66016 30.9577 5.98254 31.28 6.38016 31.28H18.6202C19.0181 31.28 19.3402 30.9577 19.3402 30.56C19.3402 30.1624 19.0181 29.84 18.6202 29.84Z" fill="black"/>
</g>
<defs>
<clipPath id="clip0_2_207">
<rect width="41.7602" height="45.36" fill="black" transform="translate(0.620117 0.320007)"/>
</clipPath>
</defs>
</svg>
